<svg xmlns="http://www.w3.org/2000/svg" viewBox="0 0 240 240">
  <!-- Calendar outer shape -->
  <rect x="20" y="20" width="184" height="184" rx="32" fill="none" stroke="#0A2463" stroke-width="8" />
  
  <!-- Calendar top bar - navy blue and gold -->
  <rect x="20" y="20" width="184" height="48" rx="32" fill="#0A2463" stroke="#0A2463" stroke-width="8" />
  
  <!-- Calendar hangers - solid -->
  <rect x="60" y="8" width="14" height="24" rx="7" fill="#0A2463" stroke="#0A2463" stroke-width="6" />
  <rect x="150" y="8" width="14" height="24" rx="7" fill="#0A2463" stroke="#0A2463" stroke-width="6" />
  
  <!-- "WeekNab" text in gold -->
  <text x="112" y="53" font-family="Arial, sans-serif" font-size="22" font-weight="900" fill="#FCBF49" text-anchor="middle">WeekNab</text>
  
  <!-- Calendar grid items - rows -->
  <rect x="50" y="90" width="28" height="18" rx="9" fill="#FCBF49" />
  <rect x="50" y="120" width="28" height="18" rx="9" fill="#0A2463" opacity="0.7" />
  <rect x="50" y="150" width="28" height="18" rx="9" fill="#0A2463" opacity="0.7" />
  
  <rect x="98" y="90" width="28" height="18" rx="9" fill="#0A2463" opacity="0.7" />
  <rect x="98" y="120" width="28" height="18" rx="9" fill="#0A2463" opacity="0.7" />
  <rect x="98" y="150" width="28" height="18" rx="9" fill="#0A2463" opacity="0.7" />
  
  <rect x="146" y="90" width="28" height="18" rx="9" fill="#0A2463" opacity="0.7" />
  <rect x="146" y="120" width="28" height="18" rx="9" fill="#0A2463" opacity="0.7" />
  <rect x="146" y="150" width="28" height="18" rx="9" fill="#0A2463" opacity="0.7" />
  
  <!-- Dollar Sign Circle in Center - gold with navy $ -->
  <circle cx="112" cy="120" r="30" fill="#FCBF49" stroke="#0A2463" stroke-width="6" />
  <text x="112" y="132" font-family="Arial, sans-serif" font-size="42" font-weight="bold" fill="#0A2463" text-anchor="middle">$</text>
</svg>
