<svg xmlns="http://www.w3.org/2000/svg" viewBox="0 0 128 128">
  <rect fill="#3178c6" x="0" y="0" width="128" height="128"/>
  <path fill="#ffffff" d="M22.4,99.9V128H11.2V99.9H0V90.2H33.6v9.7H22.4z M46.4,99.9v9.9h21.1v9.4H46.4V128h22.5v9.7H35.2V90.2h33.7v9.7H46.4z"/>
  <path fill="#ffffff" d="M128,90.2v9.7c-2.6-2.7-5.4-4.6-8.5-5.9c-3.1-1.3-6.3-1.9-9.7-1.9c-6.5,0-11.6,2-15.2,6.1c-3.6,4.1-5.5,9.7-5.5,16.7c0,6.7,1.8,12.1,5.5,16.1c3.6,4,8.6,6,15,6c6.9,0,13.2-2.8,18.4-8.5v10.7c-2.9,2-6.1,3.6-9.5,4.6c-3.4,1-7.1,1.5-11.1,1.5c-9.9,0-17.8-3-23.6-8.9c-5.8-5.9-8.7-13.9-8.7-23.9c0-6.1,1.3-11.5,3.8-16.3c2.5-4.8,6.2-8.5,10.9-11.2c4.8-2.7,10.3-4,16.5-4c3.8,0,7.4,0.5,10.8,1.4C121.6,83.6,125.1,86.4,128,90.2z"/>
</svg> 