<svg width="600" height="400" viewBox="0 0 600 400" fill="none" xmlns="http://www.w3.org/2000/svg">
  <!-- Background -->
  <rect width="600" height="400" rx="8" fill="#1A1D23"/>
  
  <!-- Header -->
  <rect x="20" y="20" width="560" height="60" rx="8" fill="#242731"/>
  <circle cx="50" cy="50" r="15" fill="#3B82F6"/>
  <rect x="80" y="40" width="120" height="20" rx="4" fill="#3B82F6" opacity="0.5"/>
  <rect x="460" y="40" width="100" height="20" rx="10" fill="#FCBF49" opacity="0.3"/>
  <circle cx="480" cy="50" r="5" fill="#FCBF49"/>
  <text x="490" y="55" font-family="Arial" font-size="12" fill="#FCBF49">Demo</text>
  
  <!-- Budget Overview -->
  <rect x="20" y="100" width="560" height="120" rx="8" fill="#242731"/>
  <text x="40" y="130" font-family="Arial" font-size="18" font-weight="bold" fill="white">Weekly Budget</text>
  
  <!-- Navigation -->
  <rect x="40" y="140" width="520" height="40" rx="8" fill="#1A1D23"/>
  <text x="300" y="165" font-family="Arial" font-size="14" text-anchor="middle" fill="white">May 1 - May 7, 2024</text>
  <text x="300" y="180" font-family="Arial" font-size="12" text-anchor="middle" fill="#94A3B8">3 days left</text>
  
  <!-- Budget Amount -->
  <text x="300" y="210" font-family="Arial" font-size="32" font-weight="bold" text-anchor="middle" fill="#10B981">$834.25</text>
  
  <!-- Categories Section -->
  <rect x="20" y="240" width="560" height="140" rx="8" fill="#242731"/>
  <text x="40" y="270" font-family="Arial" font-size="16" font-weight="bold" fill="white">Weekly Budget Categories</text>
  
  <!-- Category Cards -->
  <rect x="40" y="290" width="160" height="70" rx="6" fill="#1A1D23"/>
  <rect x="220" y="290" width="160" height="70" rx="6" fill="#1A1D23"/>
  <rect x="400" y="290" width="160" height="70" rx="6" fill="#1A1D23"/>
  
  <!-- Category Progress Bars -->
  <rect x="50" y="330" width="140" height="8" rx="4" fill="rgba(255,255,255,0.1)"/>
  <rect x="50" y="330" width="98" height="8" rx="4" fill="#3B82F6"/>
  
  <rect x="230" y="330" width="140" height="8" rx="4" fill="rgba(255,255,255,0.1)"/>
  <rect x="230" y="330" width="70" height="8" rx="4" fill="#3B82F6"/>
  
  <rect x="410" y="330" width="140" height="8" rx="4" fill="rgba(255,255,255,0.1)"/>
  <rect x="410" y="330" width="105" height="8" rx="4" fill="#EF4444"/>
  
  <!-- Category Titles -->
  <text x="50" y="310" font-family="Arial" font-size="14" fill="white">Groceries</text>
  <text x="230" y="310" font-family="Arial" font-size="14" fill="white">Transportation</text>
  <text x="410" y="310" font-family="Arial" font-size="14" fill="white">Dining Out</text>
  
  <!-- Category Amounts -->
  <text x="170" y="310" font-family="Arial" font-size="14" text-anchor="end" fill="#10B981">$72.45 left</text>
  <text x="350" y="310" font-family="Arial" font-size="14" text-anchor="end" fill="#10B981">$50.00 left</text>
  <text x="530" y="310" font-family="Arial" font-size="14" text-anchor="end" fill="#EF4444">$14.75 over</text>
</svg> 